<mxfile host="app.diagrams.net" modified="2024-09-17T14:16:12.251Z" agent="Mozilla/5.0 (Windows NT 10.0; Win64; x64; rv:130.0) Gecko/20100101 Firefox/130.0" etag="jIL97_2AUYwfBBM-UJge" version="24.3.1" type="device">
  <diagram name="Page-1" id="_X82IlEJ20sXBcsAMy1T">
    <mxGraphModel dx="1964" dy="566" grid="1" gridSize="10" guides="1" tooltips="1" connect="1" arrows="1" fold="1" page="1" pageScale="1" pageWidth="850" pageHeight="1100" math="0" shadow="0">
      <root>
        <mxCell id="0" />
        <mxCell id="1" parent="0" />
        <mxCell id="l_hysINIcQrrSr32fvWF-9" value="utilisateur" style="swimlane;fontStyle=1;align=center;verticalAlign=top;childLayout=stackLayout;horizontal=1;startSize=26;horizontalStack=0;resizeParent=1;resizeParentMax=0;resizeLast=0;collapsible=1;marginBottom=0;whiteSpace=wrap;html=1;" vertex="1" parent="1">
          <mxGeometry x="340" y="20" width="160" height="120" as="geometry" />
        </mxCell>
        <mxCell id="l_hysINIcQrrSr32fvWF-10" value="&lt;div&gt;- e-mail : string&lt;br&gt;&lt;/div&gt;&lt;div&gt;-mdp : string&lt;br&gt;&lt;/div&gt;" style="text;strokeColor=none;fillColor=none;align=left;verticalAlign=top;spacingLeft=4;spacingRight=4;overflow=hidden;rotatable=0;points=[[0,0.5],[1,0.5]];portConstraint=eastwest;whiteSpace=wrap;html=1;" vertex="1" parent="l_hysINIcQrrSr32fvWF-9">
          <mxGeometry y="26" width="160" height="44" as="geometry" />
        </mxCell>
        <mxCell id="l_hysINIcQrrSr32fvWF-11" value="" style="line;strokeWidth=1;fillColor=none;align=left;verticalAlign=middle;spacingTop=-1;spacingLeft=3;spacingRight=3;rotatable=0;labelPosition=right;points=[];portConstraint=eastwest;strokeColor=inherit;" vertex="1" parent="l_hysINIcQrrSr32fvWF-9">
          <mxGeometry y="70" width="160" height="8" as="geometry" />
        </mxCell>
        <mxCell id="l_hysINIcQrrSr32fvWF-12" value="&lt;div&gt;- se connecter()&lt;/div&gt;&lt;div&gt;- se déconnecter()&lt;br&gt;&lt;/div&gt;" style="text;strokeColor=none;fillColor=none;align=left;verticalAlign=top;spacingLeft=4;spacingRight=4;overflow=hidden;rotatable=0;points=[[0,0.5],[1,0.5]];portConstraint=eastwest;whiteSpace=wrap;html=1;" vertex="1" parent="l_hysINIcQrrSr32fvWF-9">
          <mxGeometry y="78" width="160" height="42" as="geometry" />
        </mxCell>
        <mxCell id="l_hysINIcQrrSr32fvWF-76" value="" style="endArrow=diamondThin;endFill=1;endSize=24;html=1;rounded=0;entryX=0.536;entryY=1.023;entryDx=0;entryDy=0;entryPerimeter=0;" edge="1" parent="l_hysINIcQrrSr32fvWF-9">
          <mxGeometry width="160" relative="1" as="geometry">
            <mxPoint x="120" y="160" as="sourcePoint" />
            <mxPoint x="120" y="120" as="targetPoint" />
          </mxGeometry>
        </mxCell>
        <mxCell id="l_hysINIcQrrSr32fvWF-77" value="1" style="edgeLabel;html=1;align=center;verticalAlign=middle;resizable=0;points=[];" vertex="1" connectable="0" parent="l_hysINIcQrrSr32fvWF-76">
          <mxGeometry x="0.325" relative="1" as="geometry">
            <mxPoint x="10" as="offset" />
          </mxGeometry>
        </mxCell>
        <mxCell id="l_hysINIcQrrSr32fvWF-78" value="1" style="edgeLabel;html=1;align=center;verticalAlign=middle;resizable=0;points=[];" vertex="1" connectable="0" parent="l_hysINIcQrrSr32fvWF-76">
          <mxGeometry x="-0.7437" y="2" relative="1" as="geometry">
            <mxPoint x="12" y="5" as="offset" />
          </mxGeometry>
        </mxCell>
        <mxCell id="l_hysINIcQrrSr32fvWF-17" value="Veterinaire" style="swimlane;fontStyle=1;align=center;verticalAlign=top;childLayout=stackLayout;horizontal=1;startSize=26;horizontalStack=0;resizeParent=1;resizeParentMax=0;resizeLast=0;collapsible=1;marginBottom=0;whiteSpace=wrap;html=1;" vertex="1" parent="1">
          <mxGeometry x="600" y="380" width="210" height="120" as="geometry" />
        </mxCell>
        <mxCell id="l_hysINIcQrrSr32fvWF-18" value="&lt;div&gt;- e-mail : string&lt;/div&gt;&lt;div&gt;- mot de passe : string&lt;/div&gt;" style="text;strokeColor=none;fillColor=none;align=left;verticalAlign=top;spacingLeft=4;spacingRight=4;overflow=hidden;rotatable=0;points=[[0,0.5],[1,0.5]];portConstraint=eastwest;whiteSpace=wrap;html=1;" vertex="1" parent="l_hysINIcQrrSr32fvWF-17">
          <mxGeometry y="26" width="210" height="44" as="geometry" />
        </mxCell>
        <mxCell id="l_hysINIcQrrSr32fvWF-19" value="" style="line;strokeWidth=1;fillColor=none;align=left;verticalAlign=middle;spacingTop=-1;spacingLeft=3;spacingRight=3;rotatable=0;labelPosition=right;points=[];portConstraint=eastwest;strokeColor=inherit;" vertex="1" parent="l_hysINIcQrrSr32fvWF-17">
          <mxGeometry y="70" width="210" height="8" as="geometry" />
        </mxCell>
        <mxCell id="l_hysINIcQrrSr32fvWF-20" value="&lt;div&gt;+ mettre_commentaire_habitat()&lt;/div&gt;&lt;div&gt;+ remplir_compte_rendu_animaux&lt;br&gt;&lt;/div&gt;&lt;div&gt;&lt;br&gt;&lt;/div&gt;&lt;div&gt;&lt;br&gt;&lt;/div&gt;" style="text;strokeColor=none;fillColor=none;align=left;verticalAlign=top;spacingLeft=4;spacingRight=4;overflow=hidden;rotatable=0;points=[[0,0.5],[1,0.5]];portConstraint=eastwest;whiteSpace=wrap;html=1;" vertex="1" parent="l_hysINIcQrrSr32fvWF-17">
          <mxGeometry y="78" width="210" height="42" as="geometry" />
        </mxCell>
        <mxCell id="l_hysINIcQrrSr32fvWF-21" value="Administrateur" style="swimlane;fontStyle=1;align=center;verticalAlign=top;childLayout=stackLayout;horizontal=1;startSize=26;horizontalStack=0;resizeParent=1;resizeParentMax=0;resizeLast=0;collapsible=1;marginBottom=0;whiteSpace=wrap;html=1;" vertex="1" parent="1">
          <mxGeometry x="325" y="190" width="220" height="250" as="geometry" />
        </mxCell>
        <mxCell id="l_hysINIcQrrSr32fvWF-22" value="&lt;div&gt;- e-mail : string&lt;/div&gt;&lt;div&gt;- mot de passe : string&lt;/div&gt;" style="text;strokeColor=none;fillColor=none;align=left;verticalAlign=top;spacingLeft=4;spacingRight=4;overflow=hidden;rotatable=0;points=[[0,0.5],[1,0.5]];portConstraint=eastwest;whiteSpace=wrap;html=1;" vertex="1" parent="l_hysINIcQrrSr32fvWF-21">
          <mxGeometry y="26" width="220" height="44" as="geometry" />
        </mxCell>
        <mxCell id="l_hysINIcQrrSr32fvWF-23" value="" style="line;strokeWidth=1;fillColor=none;align=left;verticalAlign=middle;spacingTop=-1;spacingLeft=3;spacingRight=3;rotatable=0;labelPosition=right;points=[];portConstraint=eastwest;strokeColor=inherit;" vertex="1" parent="l_hysINIcQrrSr32fvWF-21">
          <mxGeometry y="70" width="220" height="8" as="geometry" />
        </mxCell>
        <mxCell id="l_hysINIcQrrSr32fvWF-24" value="&lt;div&gt;+ créer_compte()&lt;/div&gt;&lt;div&gt;+ modifier_services()&lt;/div&gt;&lt;div&gt;+ supprimer_services()&lt;/div&gt;&lt;div&gt;+ créer__supp-horaires()&lt;/div&gt;&lt;div&gt;+ créer_supp_habitat()&lt;/div&gt;&lt;div&gt;+ créer_supp_animaux()&lt;br&gt;&lt;/div&gt;&lt;div&gt;+ mettre_à_jour()&lt;/div&gt;&lt;div&gt;+ trier_compte_rendu_animal_date()&lt;/div&gt;&lt;div&gt;+ + filtrer_compte_rendu_animal_date()&lt;br&gt;&lt;/div&gt;&lt;div&gt;&lt;br&gt;&lt;/div&gt;&lt;div&gt;&lt;br&gt;&lt;/div&gt;&lt;div&gt;&lt;br&gt;&lt;/div&gt;&lt;div&gt;&lt;br&gt;&lt;/div&gt;" style="text;strokeColor=none;fillColor=none;align=left;verticalAlign=top;spacingLeft=4;spacingRight=4;overflow=hidden;rotatable=0;points=[[0,0.5],[1,0.5]];portConstraint=eastwest;whiteSpace=wrap;html=1;" vertex="1" parent="l_hysINIcQrrSr32fvWF-21">
          <mxGeometry y="78" width="220" height="172" as="geometry" />
        </mxCell>
        <mxCell id="l_hysINIcQrrSr32fvWF-26" value="" style="endArrow=block;endSize=16;endFill=0;html=1;rounded=0;entryX=0.494;entryY=1.048;entryDx=0;entryDy=0;entryPerimeter=0;" edge="1" parent="1" target="l_hysINIcQrrSr32fvWF-12">
          <mxGeometry width="160" relative="1" as="geometry">
            <mxPoint x="420" y="190" as="sourcePoint" />
            <mxPoint x="425" y="350" as="targetPoint" />
            <Array as="points" />
          </mxGeometry>
        </mxCell>
        <mxCell id="l_hysINIcQrrSr32fvWF-27" value="" style="endArrow=block;endSize=16;endFill=0;html=1;rounded=0;entryX=0.994;entryY=1.024;entryDx=0;entryDy=0;entryPerimeter=0;exitX=0.833;exitY=0;exitDx=0;exitDy=0;exitPerimeter=0;" edge="1" parent="1" source="l_hysINIcQrrSr32fvWF-17" target="l_hysINIcQrrSr32fvWF-12">
          <mxGeometry width="160" relative="1" as="geometry">
            <mxPoint x="570" y="392" as="sourcePoint" />
            <mxPoint x="530" y="360" as="targetPoint" />
            <Array as="points" />
          </mxGeometry>
        </mxCell>
        <mxCell id="l_hysINIcQrrSr32fvWF-28" value="" style="endArrow=block;endSize=16;endFill=0;html=1;rounded=0;entryX=0.044;entryY=0.976;entryDx=0;entryDy=0;entryPerimeter=0;" edge="1" parent="1" target="l_hysINIcQrrSr32fvWF-12">
          <mxGeometry width="160" relative="1" as="geometry">
            <mxPoint x="133.92" y="389" as="sourcePoint" />
            <mxPoint x="329.99999999999994" y="347.98400000000004" as="targetPoint" />
            <Array as="points" />
          </mxGeometry>
        </mxCell>
        <mxCell id="l_hysINIcQrrSr32fvWF-29" value="&lt;p style=&quot;margin:0px;margin-top:4px;text-align:center;&quot;&gt;&lt;b&gt;&lt;i&gt;Service&lt;/i&gt;&lt;/b&gt;&lt;br&gt;&lt;/p&gt;&lt;hr size=&quot;1&quot; style=&quot;border-style:solid;&quot;&gt;&lt;p style=&quot;margin:0px;margin-left:4px;&quot;&gt;- nom : string&lt;br&gt;- description : string&lt;/p&gt;&lt;hr size=&quot;1&quot; style=&quot;border-style:solid;&quot;&gt;&lt;p style=&quot;margin:0px;margin-left:4px;&quot;&gt;+ modifier_Cm()&lt;/p&gt;&lt;p style=&quot;margin:0px;margin-left:4px;&quot;&gt;+ supprimer_CM()&lt;br&gt;&lt;/p&gt;" style="verticalAlign=top;align=left;overflow=fill;html=1;whiteSpace=wrap;" vertex="1" parent="1">
          <mxGeometry x="350" y="520" width="190" height="140" as="geometry" />
        </mxCell>
        <mxCell id="l_hysINIcQrrSr32fvWF-30" value="&lt;span style=&quot;white-space: pre;&quot;&gt;&#x9;&lt;/span&gt;&lt;span style=&quot;white-space: pre;&quot;&gt;&#x9;&lt;/span&gt;&lt;p style=&quot;margin:0px;margin-top:4px;text-align:center;&quot;&gt;&lt;b&gt;&lt;i&gt;Habitat&lt;/i&gt;&lt;/b&gt;&lt;br&gt;&lt;/p&gt;&lt;hr size=&quot;1&quot; style=&quot;border-style:solid;&quot;&gt;&lt;div&gt;- nom : string&lt;/div&gt;&lt;div&gt;- image : string&lt;br&gt;&lt;/div&gt;&lt;div&gt;- description animaux : string&lt;/div&gt;&lt;div&gt;- liste d&#39;animaux : string&lt;/div&gt;&lt;hr size=&quot;1&quot; style=&quot;border-style:solid;&quot;&gt;&lt;div&gt;+ modifier_Cm()&lt;/div&gt;&lt;div&gt;+ supprimer_CM()&lt;/div&gt;" style="verticalAlign=top;align=left;overflow=fill;html=1;whiteSpace=wrap;" vertex="1" parent="1">
          <mxGeometry x="340" y="780" width="190" height="170" as="geometry" />
        </mxCell>
        <mxCell id="l_hysINIcQrrSr32fvWF-31" value="&lt;span style=&quot;white-space: pre;&quot;&gt;&#x9;&lt;/span&gt;&lt;span style=&quot;white-space: pre;&quot;&gt;&#x9;&lt;/span&gt;&lt;p style=&quot;margin:0px;margin-top:4px;text-align:center;&quot;&gt;&lt;b&gt;&lt;i&gt;Animaux&lt;/i&gt;&lt;/b&gt;&lt;br&gt;&lt;/p&gt;&lt;hr size=&quot;1&quot; style=&quot;border-style:solid;&quot;&gt;&lt;div&gt;- prénom : string&lt;/div&gt;&lt;div&gt;- image : string&lt;/div&gt;&lt;div&gt;- race : string&lt;/div&gt;&lt;div&gt;- habitat : string&lt;/div&gt;&lt;div&gt;- propriété : string&lt;/div&gt;&lt;div&gt;- avis_vétérinaire : string&lt;/div&gt;&lt;hr size=&quot;1&quot; style=&quot;border-style:solid;&quot;&gt;&lt;div&gt;+ modifier_Cm()&lt;/div&gt;&lt;div&gt;+ supprimer_CM()&lt;/div&gt;" style="verticalAlign=top;align=left;overflow=fill;html=1;whiteSpace=wrap;" vertex="1" parent="1">
          <mxGeometry x="610" y="570" width="190" height="190" as="geometry" />
        </mxCell>
        <mxCell id="l_hysINIcQrrSr32fvWF-34" value="&lt;p style=&quot;margin:0px;margin-top:4px;text-align:center;&quot;&gt;&lt;i&gt;Avis&lt;/i&gt;&lt;br&gt;&lt;/p&gt;&lt;hr size=&quot;1&quot; style=&quot;border-style:solid;&quot;&gt;&lt;div&gt;- pseud : string&lt;/div&gt;&lt;div&gt;- contenu : string&lt;/div&gt;&lt;hr size=&quot;1&quot; style=&quot;border-style:solid;&quot;&gt;&lt;p style=&quot;margin:0px;margin-left:4px;&quot;&gt;+ valider avis()&lt;br&gt;&lt;/p&gt;" style="verticalAlign=top;align=left;overflow=fill;html=1;whiteSpace=wrap;" vertex="1" parent="1">
          <mxGeometry x="150" y="600" width="190" height="90" as="geometry" />
        </mxCell>
        <mxCell id="l_hysINIcQrrSr32fvWF-41" value="&lt;p style=&quot;margin:0px;margin-top:4px;text-align:center;&quot;&gt;&lt;i&gt;&lt;b&gt;Employé&lt;/b&gt;&lt;/i&gt;&lt;br&gt;&lt;/p&gt;&lt;hr size=&quot;1&quot; style=&quot;border-style:solid;&quot;&gt;&lt;div&gt;- e-mail : chaîne&lt;/div&gt;&lt;div&gt;- mot de passe : chaîne&lt;/div&gt;&lt;hr size=&quot;1&quot; style=&quot;border-style:solid;&quot;&gt;&lt;p style=&quot;margin:0px;margin-left:4px;&quot;&gt;+ valider_avis()&lt;/p&gt;&lt;p style=&quot;margin:0px;margin-left:4px;&quot;&gt;+ invalider_avis()&lt;br&gt;&lt;/p&gt;&lt;p style=&quot;margin:0px;margin-left:4px;&quot;&gt;+ modifier_services()&lt;/p&gt;&lt;p style=&quot;margin:0px;margin-left:4px;&quot;&gt;+ donner_alimentation()&lt;/p&gt;&lt;p style=&quot;margin:0px;margin-left:4px;&quot;&gt;+ repondre_messages()&lt;br&gt;&lt;/p&gt;" style="verticalAlign=top;align=left;overflow=fill;html=1;whiteSpace=wrap;" vertex="1" parent="1">
          <mxGeometry x="-70" y="330" width="190" height="155" as="geometry" />
        </mxCell>
        <mxCell id="l_hysINIcQrrSr32fvWF-42" value="&lt;p style=&quot;margin:0px;margin-top:4px;text-align:center;&quot;&gt;&lt;i&gt;&lt;b&gt;Consommation nourriture&lt;/b&gt;&lt;/i&gt;&lt;br&gt;&lt;/p&gt;&lt;hr size=&quot;1&quot; style=&quot;border-style:solid;&quot;&gt;&lt;p style=&quot;margin:0px;margin-left:4px;&quot;&gt;- date : date&lt;br&gt;&lt;/p&gt;&lt;p style=&quot;margin:0px;margin-left:4px;&quot;&gt;- heure : INT&lt;br&gt;&lt;/p&gt;&lt;p style=&quot;margin:0px;margin-left:4px;&quot;&gt;- nourriture : chaîne&lt;/p&gt;&lt;p style=&quot;margin:0px;margin-left:4px;&quot;&gt;- quantité : chaîne&lt;/p&gt;&lt;p style=&quot;margin:0px;margin-left:4px;&quot;&gt;&lt;br&gt;&lt;/p&gt;&lt;hr size=&quot;1&quot; style=&quot;border-style:solid;&quot;&gt;&lt;p style=&quot;margin:0px;margin-left:4px;&quot;&gt;+ ajouter_consommation()&lt;/p&gt;&lt;p style=&quot;margin:0px;margin-left:4px;&quot;&gt;+ modifier_consommation()&lt;br&gt;&lt;/p&gt;" style="verticalAlign=top;align=left;overflow=fill;html=1;whiteSpace=wrap;" vertex="1" parent="1">
          <mxGeometry x="-105" y="590" width="190" height="150" as="geometry" />
        </mxCell>
        <mxCell id="l_hysINIcQrrSr32fvWF-43" value="&lt;p style=&quot;margin:0px;margin-top:4px;text-align:center;&quot;&gt;&lt;i&gt;Contact&lt;/i&gt;&lt;br&gt;&lt;/p&gt;&lt;hr size=&quot;1&quot; style=&quot;border-style:solid;&quot;&gt;&lt;p style=&quot;margin:0px;margin-left:4px;&quot;&gt;- titre :&amp;nbsp;string&lt;/p&gt;&lt;p style=&quot;margin:0px;margin-left:4px;&quot;&gt;- description : string&lt;/p&gt;&lt;p style=&quot;margin:0px;margin-left:4px;&quot;&gt;- mail : string&lt;/p&gt;&lt;hr size=&quot;1&quot; style=&quot;border-style:solid;&quot;&gt;&lt;p style=&quot;margin:0px;margin-left:4px;&quot;&gt;+ method1(Type): Type&lt;br&gt;+ method2(Type, Type): Type&lt;/p&gt;" style="verticalAlign=top;align=left;overflow=fill;html=1;whiteSpace=wrap;" vertex="1" parent="1">
          <mxGeometry x="150" y="740" width="160" height="130" as="geometry" />
        </mxCell>
        <mxCell id="l_hysINIcQrrSr32fvWF-48" value="" style="endArrow=diamondThin;endFill=1;endSize=24;html=1;rounded=0;exitX=0.5;exitY=0;exitDx=0;exitDy=0;" edge="1" parent="1" source="l_hysINIcQrrSr32fvWF-34" target="l_hysINIcQrrSr32fvWF-41">
          <mxGeometry width="160" relative="1" as="geometry">
            <mxPoint x="180" y="592" as="sourcePoint" />
            <mxPoint x="183.04" y="540" as="targetPoint" />
          </mxGeometry>
        </mxCell>
        <mxCell id="l_hysINIcQrrSr32fvWF-70" value="1" style="edgeLabel;html=1;align=center;verticalAlign=middle;resizable=0;points=[];" vertex="1" connectable="0" parent="l_hysINIcQrrSr32fvWF-48">
          <mxGeometry x="0.0279" y="-5" relative="1" as="geometry">
            <mxPoint x="11" as="offset" />
          </mxGeometry>
        </mxCell>
        <mxCell id="l_hysINIcQrrSr32fvWF-71" value="0..*" style="edgeLabel;html=1;align=center;verticalAlign=middle;resizable=0;points=[];" vertex="1" connectable="0" parent="l_hysINIcQrrSr32fvWF-48">
          <mxGeometry x="-0.5327" y="1" relative="1" as="geometry">
            <mxPoint x="16" y="4" as="offset" />
          </mxGeometry>
        </mxCell>
        <mxCell id="l_hysINIcQrrSr32fvWF-50" value="" style="endArrow=diamondThin;endFill=1;endSize=24;html=1;rounded=0;exitX=0;exitY=0;exitDx=0;exitDy=0;entryX=0.163;entryY=0.987;entryDx=0;entryDy=0;entryPerimeter=0;" edge="1" parent="1" source="l_hysINIcQrrSr32fvWF-42" target="l_hysINIcQrrSr32fvWF-41">
          <mxGeometry width="160" relative="1" as="geometry">
            <mxPoint x="-40" y="730" as="sourcePoint" />
            <mxPoint x="110" y="539" as="targetPoint" />
            <Array as="points">
              <mxPoint x="-40" y="590" />
              <mxPoint x="-40" y="540" />
            </Array>
          </mxGeometry>
        </mxCell>
        <mxCell id="l_hysINIcQrrSr32fvWF-73" value="0..*" style="edgeLabel;html=1;align=center;verticalAlign=middle;resizable=0;points=[];" vertex="1" connectable="0" parent="l_hysINIcQrrSr32fvWF-50">
          <mxGeometry x="-0.4189" relative="1" as="geometry">
            <mxPoint x="25" y="-10" as="offset" />
          </mxGeometry>
        </mxCell>
        <mxCell id="l_hysINIcQrrSr32fvWF-74" value="1" style="edgeLabel;html=1;align=center;verticalAlign=middle;resizable=0;points=[];" vertex="1" connectable="0" parent="l_hysINIcQrrSr32fvWF-50">
          <mxGeometry x="0.4944" relative="1" as="geometry">
            <mxPoint as="offset" />
          </mxGeometry>
        </mxCell>
        <mxCell id="l_hysINIcQrrSr32fvWF-52" value="" style="endArrow=diamondThin;endFill=1;endSize=24;html=1;rounded=0;entryX=0.432;entryY=1;entryDx=0;entryDy=0;exitX=1.005;exitY=0.69;exitDx=0;exitDy=0;exitPerimeter=0;entryPerimeter=0;" edge="1" parent="1" source="l_hysINIcQrrSr32fvWF-41" target="l_hysINIcQrrSr32fvWF-24">
          <mxGeometry width="160" relative="1" as="geometry">
            <mxPoint x="370" y="320" as="sourcePoint" />
            <mxPoint x="530" y="320" as="targetPoint" />
            <Array as="points">
              <mxPoint x="420" y="490" />
            </Array>
          </mxGeometry>
        </mxCell>
        <mxCell id="l_hysINIcQrrSr32fvWF-79" value="0..*" style="edgeLabel;html=1;align=center;verticalAlign=middle;resizable=0;points=[];" vertex="1" connectable="0" parent="l_hysINIcQrrSr32fvWF-52">
          <mxGeometry x="-0.8209" y="-1" relative="1" as="geometry">
            <mxPoint y="-13" as="offset" />
          </mxGeometry>
        </mxCell>
        <mxCell id="l_hysINIcQrrSr32fvWF-80" value="1" style="edgeLabel;html=1;align=center;verticalAlign=middle;resizable=0;points=[];" vertex="1" connectable="0" parent="l_hysINIcQrrSr32fvWF-52">
          <mxGeometry x="0.6873" y="1" relative="1" as="geometry">
            <mxPoint x="-9" as="offset" />
          </mxGeometry>
        </mxCell>
        <mxCell id="l_hysINIcQrrSr32fvWF-53" value="" style="endArrow=diamondThin;endFill=1;endSize=24;html=1;rounded=0;entryX=0.636;entryY=0.988;entryDx=0;entryDy=0;entryPerimeter=0;exitX=-0.005;exitY=0.833;exitDx=0;exitDy=0;exitPerimeter=0;" edge="1" parent="1" source="l_hysINIcQrrSr32fvWF-20" target="l_hysINIcQrrSr32fvWF-24">
          <mxGeometry width="160" relative="1" as="geometry">
            <mxPoint x="550" y="440" as="sourcePoint" />
            <mxPoint x="440" y="370" as="targetPoint" />
            <Array as="points">
              <mxPoint x="465" y="493" />
            </Array>
          </mxGeometry>
        </mxCell>
        <mxCell id="l_hysINIcQrrSr32fvWF-81" value="0..*" style="edgeLabel;html=1;align=center;verticalAlign=middle;resizable=0;points=[];" vertex="1" connectable="0" parent="l_hysINIcQrrSr32fvWF-53">
          <mxGeometry x="-0.8206" relative="1" as="geometry">
            <mxPoint y="-13" as="offset" />
          </mxGeometry>
        </mxCell>
        <mxCell id="l_hysINIcQrrSr32fvWF-82" value="1" style="edgeLabel;html=1;align=center;verticalAlign=middle;resizable=0;points=[];" vertex="1" connectable="0" parent="l_hysINIcQrrSr32fvWF-53">
          <mxGeometry x="0.6607" y="-2" relative="1" as="geometry">
            <mxPoint x="13" as="offset" />
          </mxGeometry>
        </mxCell>
        <mxCell id="l_hysINIcQrrSr32fvWF-54" value="" style="endArrow=diamondThin;endFill=1;endSize=24;html=1;rounded=0;entryX=0.523;entryY=1;entryDx=0;entryDy=0;entryPerimeter=0;" edge="1" parent="1" source="l_hysINIcQrrSr32fvWF-29" target="l_hysINIcQrrSr32fvWF-24">
          <mxGeometry width="160" relative="1" as="geometry">
            <mxPoint x="370" y="690" as="sourcePoint" />
            <mxPoint x="530" y="690" as="targetPoint" />
            <Array as="points">
              <mxPoint x="440" y="520" />
            </Array>
          </mxGeometry>
        </mxCell>
        <mxCell id="l_hysINIcQrrSr32fvWF-63" value="1" style="edgeLabel;html=1;align=center;verticalAlign=middle;resizable=0;points=[];" vertex="1" connectable="0" parent="l_hysINIcQrrSr32fvWF-54">
          <mxGeometry x="0.325" relative="1" as="geometry">
            <mxPoint x="8" as="offset" />
          </mxGeometry>
        </mxCell>
        <mxCell id="l_hysINIcQrrSr32fvWF-64" value="0..*" style="edgeLabel;html=1;align=center;verticalAlign=middle;resizable=0;points=[];" vertex="1" connectable="0" parent="l_hysINIcQrrSr32fvWF-54">
          <mxGeometry x="-0.7437" y="2" relative="1" as="geometry">
            <mxPoint x="12" as="offset" />
          </mxGeometry>
        </mxCell>
        <mxCell id="l_hysINIcQrrSr32fvWF-55" value="" style="endArrow=diamondThin;endFill=1;endSize=24;html=1;rounded=0;exitX=0;exitY=0;exitDx=0;exitDy=0;" edge="1" parent="1" target="l_hysINIcQrrSr32fvWF-20">
          <mxGeometry width="160" relative="1" as="geometry">
            <mxPoint x="600" y="790" as="sourcePoint" />
            <mxPoint x="590" y="590" as="targetPoint" />
            <Array as="points">
              <mxPoint x="570" y="790" />
              <mxPoint x="570" y="650" />
              <mxPoint x="570" y="520" />
              <mxPoint x="600" y="520" />
            </Array>
          </mxGeometry>
        </mxCell>
        <mxCell id="l_hysINIcQrrSr32fvWF-60" value="0" style="edgeLabel;html=1;align=center;verticalAlign=middle;resizable=0;points=[];" vertex="1" connectable="0" parent="l_hysINIcQrrSr32fvWF-55">
          <mxGeometry x="-0.8857" relative="1" as="geometry">
            <mxPoint as="offset" />
          </mxGeometry>
        </mxCell>
        <mxCell id="l_hysINIcQrrSr32fvWF-61" value="1" style="edgeLabel;html=1;align=center;verticalAlign=middle;resizable=0;points=[];" vertex="1" connectable="0" parent="l_hysINIcQrrSr32fvWF-55">
          <mxGeometry x="0.7714" y="-2" relative="1" as="geometry">
            <mxPoint as="offset" />
          </mxGeometry>
        </mxCell>
        <mxCell id="l_hysINIcQrrSr32fvWF-62" value="1" style="edgeLabel;html=1;align=center;verticalAlign=middle;resizable=0;points=[];" vertex="1" connectable="0" parent="l_hysINIcQrrSr32fvWF-55">
          <mxGeometry x="-0.9065" y="2" relative="1" as="geometry">
            <mxPoint as="offset" />
          </mxGeometry>
        </mxCell>
        <mxCell id="l_hysINIcQrrSr32fvWF-66" value="" style="endArrow=diamondThin;endFill=1;endSize=24;html=1;rounded=0;exitX=0.968;exitY=0.006;exitDx=0;exitDy=0;exitPerimeter=0;" edge="1" parent="1" source="l_hysINIcQrrSr32fvWF-30">
          <mxGeometry width="160" relative="1" as="geometry">
            <mxPoint x="590" y="780" as="sourcePoint" />
            <mxPoint x="641" y="490" as="targetPoint" />
            <Array as="points">
              <mxPoint x="560" y="780" />
              <mxPoint x="560" y="640" />
              <mxPoint x="560" y="510" />
              <mxPoint x="590" y="510" />
            </Array>
          </mxGeometry>
        </mxCell>
        <mxCell id="l_hysINIcQrrSr32fvWF-67" value="0" style="edgeLabel;html=1;align=center;verticalAlign=middle;resizable=0;points=[];" vertex="1" connectable="0" parent="l_hysINIcQrrSr32fvWF-66">
          <mxGeometry x="-0.8857" relative="1" as="geometry">
            <mxPoint as="offset" />
          </mxGeometry>
        </mxCell>
        <mxCell id="l_hysINIcQrrSr32fvWF-68" value="1" style="edgeLabel;html=1;align=center;verticalAlign=middle;resizable=0;points=[];" vertex="1" connectable="0" parent="l_hysINIcQrrSr32fvWF-66">
          <mxGeometry x="0.7714" y="-2" relative="1" as="geometry">
            <mxPoint as="offset" />
          </mxGeometry>
        </mxCell>
        <mxCell id="l_hysINIcQrrSr32fvWF-69" value="0..*" style="edgeLabel;html=1;align=center;verticalAlign=middle;resizable=0;points=[];" vertex="1" connectable="0" parent="l_hysINIcQrrSr32fvWF-66">
          <mxGeometry x="-0.9065" y="2" relative="1" as="geometry">
            <mxPoint as="offset" />
          </mxGeometry>
        </mxCell>
        <mxCell id="l_hysINIcQrrSr32fvWF-85" value="&lt;span style=&quot;white-space: pre;&quot;&gt;&#x9;&lt;/span&gt;&lt;span style=&quot;white-space: pre;&quot;&gt;&#x9;&lt;/span&gt;&lt;p style=&quot;margin:0px;margin-top:4px;text-align:center;&quot;&gt;&lt;b&gt;&lt;i&gt;Etats animaux&lt;/i&gt;&lt;/b&gt;&lt;/p&gt;&lt;hr size=&quot;1&quot; style=&quot;border-style:solid;&quot;&gt;&lt;div&gt;&lt;hr size=&quot;1&quot; style=&quot;border-style:solid;&quot;&gt;&lt;div&gt;- état animal : string&lt;/div&gt;&lt;div&gt;- nourriture : string&lt;/div&gt;&lt;div&gt;- grammage nouritture :float&lt;br&gt;&lt;/div&gt;&lt;div&gt;- date de passage : date&lt;br&gt;&lt;/div&gt;&lt;div&gt;- détail_état_animal:&amp;nbsp; string&lt;/div&gt;&lt;br&gt;&lt;/div&gt;&lt;hr size=&quot;1&quot; style=&quot;border-style:solid;&quot;&gt;&lt;div&gt;+ modifier_Cm()&lt;/div&gt;&lt;div&gt;+ supprimer_CM()&lt;/div&gt;" style="verticalAlign=top;align=left;overflow=fill;html=1;whiteSpace=wrap;" vertex="1" parent="1">
          <mxGeometry x="600" y="780" width="190" height="190" as="geometry" />
        </mxCell>
        <mxCell id="l_hysINIcQrrSr32fvWF-86" value="" style="endArrow=diamondThin;endFill=1;endSize=24;html=1;rounded=0;entryX=0.75;entryY=1;entryDx=0;entryDy=0;exitX=0;exitY=0;exitDx=0;exitDy=0;" edge="1" parent="1" source="l_hysINIcQrrSr32fvWF-43" target="l_hysINIcQrrSr32fvWF-41">
          <mxGeometry width="160" relative="1" as="geometry">
            <mxPoint x="90" y="720" as="sourcePoint" />
            <mxPoint x="250" y="720" as="targetPoint" />
          </mxGeometry>
        </mxCell>
        <mxCell id="l_hysINIcQrrSr32fvWF-88" value="1" style="edgeLabel;html=1;align=center;verticalAlign=middle;resizable=0;points=[];" vertex="1" connectable="0" parent="l_hysINIcQrrSr32fvWF-86">
          <mxGeometry x="0.7517" y="1" relative="1" as="geometry">
            <mxPoint x="9" as="offset" />
          </mxGeometry>
        </mxCell>
        <mxCell id="l_hysINIcQrrSr32fvWF-89" value="0..*" style="edgeLabel;html=1;align=center;verticalAlign=middle;resizable=0;points=[];" vertex="1" connectable="0" parent="l_hysINIcQrrSr32fvWF-86">
          <mxGeometry x="-0.9138" y="-3" relative="1" as="geometry">
            <mxPoint x="10" y="-1" as="offset" />
          </mxGeometry>
        </mxCell>
        <mxCell id="l_hysINIcQrrSr32fvWF-90" value="" style="endArrow=diamondThin;endFill=1;endSize=24;html=1;rounded=0;exitX=0.8;exitY=-0.005;exitDx=0;exitDy=0;exitPerimeter=0;" edge="1" parent="1" source="l_hysINIcQrrSr32fvWF-31">
          <mxGeometry width="160" relative="1" as="geometry">
            <mxPoint x="820" y="590" as="sourcePoint" />
            <mxPoint x="760" y="500" as="targetPoint" />
            <Array as="points">
              <mxPoint x="760" y="510" />
            </Array>
          </mxGeometry>
        </mxCell>
        <mxCell id="l_hysINIcQrrSr32fvWF-91" value="0..*" style="edgeLabel;html=1;align=center;verticalAlign=middle;resizable=0;points=[];" vertex="1" connectable="0" parent="l_hysINIcQrrSr32fvWF-90">
          <mxGeometry x="-0.5896" y="4" relative="1" as="geometry">
            <mxPoint x="12" as="offset" />
          </mxGeometry>
        </mxCell>
        <mxCell id="l_hysINIcQrrSr32fvWF-92" value="1" style="edgeLabel;html=1;align=center;verticalAlign=middle;resizable=0;points=[];" vertex="1" connectable="0" parent="l_hysINIcQrrSr32fvWF-90">
          <mxGeometry x="0.2466" relative="1" as="geometry">
            <mxPoint x="9" as="offset" />
          </mxGeometry>
        </mxCell>
      </root>
    </mxGraphModel>
  </diagram>
</mxfile>
